# xmcd
#
# Track frame offsets: 
#        150
#        15154
#        29184
#        43502
#        65928
#        75471
#        85431
#        96291
#        109382
#        120333
#        130110
#        142339
#
# Disc length: 2148 seconds
#
# Revision: 8
# Processed by: cddbd v1.5.2PL0 Copyright (c) Steve Scherf et al.
# Submitted via: ExactAudioCopy v1.0b3
#
DISCID=a708620c
DTITLE=Merle Haggard - If I Could Only Fly
DYEAR=2000
DGENRE=Country
TTITLE0=Wishing All These Old Things Were New
TTITLE1=Honky Tonky Mama
TTITLE2=Turn To Me
TTITLE3=If I Could Only Fly
TTITLE4=Crazy Moon
TTITLE5=Bareback
TTITLE6=(Think About a) Lullaby
TTITLE7=I'm Still Your Daddy
TTITLE8=Proud To Be Your Man
TTITLE9=Leavin's Getting Harder
TTITLE10=Thanks To Uncle John
TTITLE11=Listening (To The Wind)
EXTD=YEAR: 2000
EXTT0=
EXTT1=
EXTT2=
EXTT3=
EXTT4=
EXTT5=
EXTT6=
EXTT7=
EXTT8=
EXTT9=
EXTT10=
EXTT11=
PLAYORDER=
